<svg xmlns="http://www.w3.org/2000/svg" width="180.04" height="61.64" viewBox="0 0 180.04 61.64"><path fill="#231f20" d="M47.004 26.958V16.336h.031l4.415 10.622h1.04l4.417-10.67h.032v10.67h1.04v-11.55h-1.585L51.963 25.47l-4.335-10.062h-1.664v11.55h1.04"/><path fill="#231f20" fill-rule="evenodd" d="M65.944 15.647H64.76v1.408h1.184zm-2.784 0h-1.184v1.408h1.184zm3.008 7.904c0 1.44-.72 2.768-2.304 2.768-1.312 0-2.112-.816-2.112-2.208v-5.184h-.96v5.024c0 .928.209 3.247 2.832 3.247 1.04 0 1.95-.463 2.51-1.455l.034.032.047 1.183h.993c-.032-.543-.081-1.183-.081-1.807v-6.224h-.959v4.624"/><path fill="#231f20" d="M70.646 22.335c0-1.44.72-2.768 2.304-2.768 1.31 0 2.11.816 2.11 2.208v5.183h.962v-5.023c0-.927-.209-3.248-2.831-3.248-1.042 0-1.952.464-2.513 1.456l-.032-.032-.048-1.184h-.992c.032.544.08 1.184.08 1.808v6.223h.96v-4.623M84.692 21.391c-.08-1.711-1.424-2.704-3.072-2.704-2.384 0-3.584 2.08-3.584 4.256 0 2.192 1.121 4.255 3.52 4.255 1.824 0 2.88-.912 3.136-2.751h-1.04c-.08 1.104-.944 1.872-2.192 1.872-1.472 0-2.384-1.552-2.384-3.392 0-1.824.912-3.36 2.384-3.36 1.328 0 2.112.592 2.192 1.824h1.04M87.54 15.407h-.96v11.551h.96v-4.622c0-1.44.72-2.769 2.304-2.769 1.312 0 2.11.816 2.11 2.207v5.184h.962v-5.023c0-.927-.208-3.248-2.832-3.248-1.04 0-1.952.464-2.512 1.457h-.032v-4.737"/><path fill="#231f20" fill-rule="evenodd" d="M102.242 23.167c0-2.512-.977-4.48-3.664-4.48-2.383 0-3.584 2.08-3.584 4.256 0 2.192 1.12 4.255 3.52 4.255 1.936 0 3.135-.879 3.631-2.799h-1.008c-.24 1.104-1.183 1.92-2.317 1.92-1.97 0-2.754-1.44-2.785-3.152h6.207m-6.176-.88c.129-1.408.961-2.72 2.529-2.72 1.662 0 2.495 1.168 2.607 2.72h-5.136"/><path fill="#231f20" d="M105.33 22.335c0-1.44.719-2.768 2.302-2.768 1.312 0 2.112.816 2.112 2.208v5.183h.96v-5.023c0-.927-.208-3.248-2.832-3.248-1.04 0-1.952.464-2.512 1.456l-.03-.032-.05-1.184h-.991c.032.544.08 1.184.08 1.808v6.223h.96v-4.623M52.815 11.55v-.96h-5.807V-.001h-1.04v11.55h6.847"/><path fill="#231f20" fill-rule="evenodd" d="M54.878 9.31c0-2.015 2.848-1.76 4.207-1.807.097 1.68-.304 3.407-2.399 3.407-.976 0-1.808-.512-1.808-1.6m4.207-2.687c-1.167.063-2.56-.097-3.63.368-.961.4-1.617 1.231-1.617 2.32 0 1.568 1.184 2.48 2.672 2.48 1.088 0 2.159-.64 2.51-1.314l.05-.111h.032l.03 1.184h.993c-.032-.544-.096-1.184-.08-1.807V5.935c.032-1.84-1.072-2.657-2.847-2.657-1.536 0-2.768.625-3.008 2.272h1.024c.128-1.088.96-1.391 1.968-1.391 1.136 0 1.807.415 1.903 1.727v.737"/><path fill="#231f20" d="M63.502 6.926c0-1.44.72-2.767 2.304-2.767 1.31 0 2.111.815 2.111 2.207v5.184h.96V6.526c0-.928-.208-3.248-2.83-3.248-1.04 0-1.952.465-2.513 1.457l-.032-.033-.048-1.183h-.991c.031.543.08 1.183.08 1.807v6.224h.96V6.926"/><path fill="#231f20" fill-rule="evenodd" d="M76.94 7.342c0 1.825-.64 3.568-2.736 3.568-1.84 0-2.272-2.031-2.272-3.52 0-1.535.592-3.231 2.416-3.231 1.872 0 2.592 1.55 2.592 3.183m.08 4.208h.992c-.032-.544-.08-1.184-.08-1.807V0h-.962v4.702l-.03.032c-.56-.944-1.68-1.456-2.753-1.456-2.383 0-3.295 2.144-3.295 4.225 0 2.016.912 4.287 3.295 4.287 1.12 0 2.097-.528 2.753-1.487l.03.063.05 1.184M87.097 7.758c0-2.512-.976-4.48-3.664-4.48-2.382 0-3.582 2.08-3.582 4.256 0 2.192 1.119 4.256 3.518 4.256 1.937 0 3.136-.88 3.633-2.8h-1.009c-.24 1.104-1.184 1.92-2.318 1.92-1.97 0-2.752-1.44-2.784-3.152h6.206m-6.174-.88c.128-1.408.958-2.72 2.526-2.72 1.665 0 2.497 1.168 2.609 2.72h-5.135"/><path fill="#231f20" d="M88.953 5.519c0 1.488 1.28 1.856 2.543 2.16 1.28.286 2.544.48 2.544 1.632 0 1.12-1.07 1.598-2.096 1.598-1.087 0-2.143-.35-2.224-1.55h-1.04c.032 1.774 1.633 2.432 3.024 2.432 1.695 0 3.375-.817 3.375-2.624 0-.865-.527-1.584-1.36-1.872-2.175-.768-3.727-.656-3.727-1.84 0-.944.913-1.296 1.81-1.296.99 0 1.885.336 1.981 1.344h1.041c-.13-1.696-1.407-2.224-2.927-2.224-1.409 0-2.944.576-2.944 2.24M98.184-.001h-.959v11.55h.96V6.927c0-1.439.72-2.767 2.303-2.767 1.313 0 2.112.815 2.112 2.207v5.184h.96V6.526c0-.927-.209-3.248-2.832-3.248-1.04 0-1.95.465-2.51 1.457h-.034V0"/><path fill="#231f20" fill-rule="evenodd" d="M106.454 9.31c0-2.015 2.85-1.76 4.209-1.807.096 1.68-.305 3.407-2.399 3.407-.977 0-1.81-.512-1.81-1.6m4.209-2.687c-1.169.063-2.56-.097-3.632.368-.96.4-1.616 1.231-1.616 2.32 0 1.568 1.183 2.48 2.672 2.48 1.087 0 2.159-.64 2.511-1.314l.05-.111h.03l.032 1.184h.993c-.033-.544-.097-1.184-.081-1.807V5.935c.033-1.84-1.071-2.657-2.847-2.657-1.536 0-2.769.625-3.008 2.272h1.023c.129-1.088.961-1.391 1.969-1.391 1.135 0 1.807.415 1.904 1.727v.737"/><path fill="#231f20" d="M119.494 8.142c0 1.44-.72 2.768-2.303 2.768-1.312 0-2.11-.816-2.11-2.208V3.519h-.962v5.024c0 .927.208 3.248 2.831 3.248 1.04 0 1.952-.465 2.512-1.457l.032.032.049 1.184h.99c-.03-.544-.079-1.184-.079-1.807V3.519h-.96v4.623"/><path fill="#231f20" fill-rule="evenodd" d="M123.814 7.342c0-1.632.72-3.183 2.59-3.183 1.825 0 2.449 1.696 2.449 3.232 0 1.488-.464 3.52-2.304 3.52-2.096 0-2.735-1.744-2.735-3.569m0 2.96h.03c.658.96 1.632 1.488 2.8 1.488 2.336 0 3.249-2.271 3.249-4.287 0-2.08-.913-4.225-3.297-4.225-1.071 0-2.191.512-2.751 1.456l-.031-.032-.049-1.183h-.992c.033.543.096 1.183.08 1.807v9.296h.96v-4.32"/><path fill="#231f20" d="M132.595 9.406c0 1.088-.112 2.384 1.92 2.384.32 0 .672-.064.976-.144v-.832c-.256.08-.544.096-.832.096-.736 0-1.12-.4-1.103-1.136V4.4h1.823v-.88h-1.823V1.392l-.961.416v1.711h-1.6v.88h1.6v5.007M136.955 5.519c0 1.488 1.278 1.856 2.544 2.16 1.278.286 2.542.48 2.542 1.632 0 1.12-1.072 1.598-2.096 1.598-1.088 0-2.144-.35-2.222-1.55h-1.042c.034 1.774 1.634 2.432 3.026 2.432 1.693 0 3.374-.817 3.374-2.624 0-.865-.528-1.584-1.36-1.872-2.176-.768-3.726-.656-3.726-1.84 0-.944.91-1.296 1.806-1.296.992 0 1.888.336 1.984 1.344h1.04c-.128-1.696-1.408-2.224-2.926-2.224-1.408 0-2.944.576-2.944 2.24M145.913 9.406c0 1.088-.11 2.384 1.922 2.384.32 0 .672-.064.974-.144v-.832c-.254.08-.544.096-.832.096-.736 0-1.12-.4-1.104-1.136V4.4h1.824v-.88h-1.824V1.392l-.96.416v1.711h-1.598v.88h1.598v5.007"/><path fill="#231f20" fill-rule="evenodd" d="M150.881 9.31c0-2.015 2.848-1.76 4.207-1.807.096 1.68-.303 3.407-2.4 3.407-.975 0-1.807-.512-1.807-1.6m4.207-2.687c-1.168.063-2.56-.097-3.632.368-.959.4-1.615 1.231-1.615 2.32 0 1.568 1.183 2.48 2.671 2.48 1.09 0 2.161-.64 2.512-1.314l.048-.111h.032l.032 1.184h.992c-.032-.544-.096-1.184-.08-1.807V5.935c.032-1.84-1.072-2.657-2.848-2.657-1.535 0-2.767.625-3.007 2.272h1.024c.127-1.088.959-1.391 1.967-1.391 1.136 0 1.808.415 1.904 1.727v.737M164.05 7.342c0 1.825-.64 3.568-2.737 3.568-1.84 0-2.272-2.031-2.272-3.52 0-1.535.594-3.231 2.415-3.231 1.873 0 2.593 1.55 2.593 3.183m.079 4.208h.993c-.033-.544-.081-1.184-.081-1.807V0h-.96v4.702l-.03.032c-.56-.944-1.682-1.456-2.753-1.456-2.384 0-3.296 2.144-3.296 4.225 0 2.016.912 4.287 3.296 4.287 1.119 0 2.096-.528 2.752-1.487l.031.063.048 1.184"/><path fill="#231f20" d="M168.127 9.406c0 1.088-.112 2.384 1.92 2.384.32 0 .672-.064.976-.144v-.832c-.256.08-.544.096-.832.096-.736 0-1.12-.4-1.104-1.136V4.4h1.824v-.88h-1.824V1.392l-.96.416v1.711h-1.6v.88h1.6v5.007"/><path fill="none" stroke="#231f20" stroke-miterlimit="3.864" stroke-width=".6346508" d="M.317.316h22.328v16.926c0 6.21-5.005 11.144-11.156 11.147C5.335 28.394.317 23.397.317 17.242Z"/><path fill="#231f20" d="M11.811 9.787c.917-.03 1.609-.364 1.99-.766.228-.211.43-.419.509-.714l-.371-.145c-.076.24-.191.354-.38.527-.357.376-1.106.693-1.973.693-.718 0-1.358-.237-1.757-.512-.307-.194-.512-.379-.61-.712l-.366.169c.105.39.405.67.763.895.418.289.98.533 1.724.563v3.768H9.285v.459h2.052v6.777h.474v-6.777h2.143v-.46h-2.143V9.788m-1.11-6.199c.633 0 2.005.074 2.646.317.725.322 1.112.663 1.562 1.434.229.458.321.617.434 1.226-.814 0-2.705-.205-2.292.618.044.115.586.701 1.364.839.998.205 2.338.022 3.383-.39.358-.136-.097-.578.152-.723 0 0 .18-.092.453-.251-.068-.183-.136-.298-.205-.473l1.368-.709.999 2.02-1.392.755-.472-.974c.281-.217.279-.206.75-.526a1.028 1.028 0 0 0-.09-.242c-.184.046-.834.514-.857.582-.092.207.054.313.009.542-.07.297-.251.355-.526.448 0 .09.023.144.047.212.343-.068.538-.182.652-.547.133.236.113.318.247.513L17.8 8.95V7.884c-.092 0-.23.046-.32.068v13.262c-.48-.046-1.342-.267-1.663-.702-.358-.525-.288-1.18-.288-2.042 0-.114.067-5.479-.07-6.12-.137-.495-.335-.74-.494-.967-.16-.23-.527-.488-.778-.58v10.22l-5.13-.007V10.971c-.328.08-.515.181-.761.412-.32.297-.526.693-.526.99 0 0-.008 4.847-.008 6.12 0 1.227-.138 1.494-.252 1.63-.457.733-1.03.976-1.805.976 0-4.564.029-11.332.029-12.262 0-.45.07-.885-.335-1.022 0 .321-.027.55-.027.93L3.347 7.634c.035-.114.065-.122.11-.237.297.069.325.143.6.235 0-.023.056-.159.056-.159s-.35-.228-.578-.228c.046-.114.042-.11.087-.133.137-.07.343.114.64.182.023-.09.023-.155 0-.178-.115-.115-.332-.125-.56-.24-.076-.067-.46-.263-.872-.56.023-.092.043-.11.09-.177.114.068.657.413.885.527.024.023.069-.14.047-.14-.16-.138-.435-.253-.861-.587.044-.07.09-.12.113-.21.336.206.565.41.906.655.184.138.299.185.429.345.137.25-.107.93.617 1.137l.009-.217c-.48-.289-.275-.74-.457-1.013-.115-.183-.688-.435-.414-.816.312.228 1.16.93 1.16.953.044.137-.16.526.22.77.389.25 2.072.617 2.614.55.861-.07 1.839-.275 2.478-.998.115.137.244.47.314.493l.724-.204c-.013-.03.05-.718.05-1.427 0-1.112.01-1.37-.13-1.65-.232-.305-.32-.436-.923-.718M9.805 21.402h.814v1.09c-.045.069-.272.114-.791.48-.64.458-.907.655-1.524 1.043 0-1.111.93-1.683 1.136-1.95.158-.205.228-.617.365-.663"/><path fill="none" stroke="#231f20" stroke-miterlimit="3.864" stroke-width=".0759981" d="M9.805 21.402h.814v1.09c-.045.069-.272.114-.791.48-.64.458-.907.655-1.524 1.043 0-1.111.93-1.683 1.136-1.95.158-.205.228-.617.365-.663z"/><path fill="#231f20" d="M12.442 21.402h.838c.023.023.357.708.61.93.457.526.746.434.839 1.683-.52-.296-.793-.524-1.311-.929-.55-.412-.801-.433-.915-.594-.07-.116-.053-.397-.061-1.09"/><path fill="none" stroke="#231f20" stroke-miterlimit="3.864" stroke-width=".0759981" d="M12.442 21.402h.838c.023.023.357.708.61.93.457.526.746.434.839 1.683-.52-.296-.793-.524-1.311-.929-.55-.412-.801-.433-.915-.594-.07-.116-.053-.397-.061-1.09z"/><path fill="#231f20" fill-rule="evenodd" d="m9.985 5.19-.004.027c.37.19.388.186.742-.032-.107-.201-.291-.337-.532-.276-.138.055-.19.134-.206.282m-.14-1.087c-.05.29.015.319.196.502.078-.206.13-.35-.196-.502m.289-.008c-.068.247-.047.366.218.492.017-.245.074-.287-.218-.492m.302.025c-.068.244-.068.326.22.494.017-.245.038-.308-.22-.494m.276-.013c-.083.262-.041.36.244.49.017-.246-.035-.272-.244-.49m-.741-.393c.207-.047.462.045.677.14.285.184.658.493.73.825.066.204-.027 2.803-.027 2.803l-.05.034s-.287-.57-.46-.733c-.048-.024-.451.072-1.158 0-.048-.31-.08-.47-.08-.725-.12-.024-.14-.028-.26-.05.239-1.184-.157-1.951.628-2.294"/><path fill="#231f20" d="M48.459 36.567h2.078c1.088-.016 1.728-.559 1.728-1.583s-.64-1.455-1.728-1.471H48.46zm0 6.572H45.98V31.594h4.91c1.982.016 4.013.655 4.013 3.006 0 1.503-.976 2.495-2.399 2.799v.032c1.903.207 1.903 1.375 2.112 2.974.11.736.207 2.095.67 2.734h-2.733c-.208-1.023-.32-2.062-.432-3.102-.064-.64-.224-1.518-1.04-1.551h-2.622v4.653M61.625 38.167c0-.88-.24-1.695-1.407-1.695-1.104 0-1.343.815-1.375 1.695zm-2.782 1.599c0 1.04.143 2.014 1.375 2.014.83 0 1.247-.303 1.471-1.039h2.159c-.208 1.983-1.759 2.638-3.63 2.638-2.75 0-3.854-1.55-3.854-4.237 0-2.415 1.407-4.27 3.854-4.27 1.503 0 2.75.512 3.422 1.919.224.447.335.928.4 1.44.064.494.064 1.006.064 1.535h-5.261M69.849 32.954c-1.695-.193-1.727.575-1.663 2.158h1.456v1.6h-1.456v6.427h-2.399v-6.428h-1.199v-1.599h1.2c-.065-2.287.143-3.758 2.75-3.758.432 0 .88.048 1.31.111v1.489M75.53 38.167c0-.88-.24-1.695-1.408-1.695-1.103 0-1.343.815-1.375 1.695zm-2.783 1.599c0 1.04.144 2.014 1.375 2.014.831 0 1.247-.303 1.471-1.039h2.16c-.208 1.983-1.76 2.638-3.631 2.638-2.75 0-3.853-1.55-3.853-4.237 0-2.415 1.406-4.27 3.853-4.27 1.503 0 2.75.512 3.423 1.919.223.447.335.928.4 1.44.063.494.063 1.006.063 1.535h-5.261M81.387 35.112l.048 1.455h.032c.512-1.263 1.535-1.583 2.735-1.551v2.128h-1.04c-.4.03-.927.255-1.168.59-.255.449-.303.897-.319 1.424v3.981h-2.383l-.016-6.428c0-.336-.048-1.007-.08-1.599h2.19M87.035 40.63c0 .67.496 1.15 1.167 1.15 1.328 0 1.376-1.471 1.376-2.414-.832-.017-2.543-.032-2.543 1.263zM85.1 37.382c.016-1.008.448-1.632 1.087-2 .656-.383 1.504-.511 2.367-.511 1.615 0 3.422.592 3.422 3.006v4.383c.016.4.08.639.112.878h-2.159a8.455 8.455 0 0 1-.08-1.07h-.032c-.543.926-1.375 1.31-2.463 1.31-1.503 0-2.622-.863-2.622-2.43 0-.56.256-1.919 1.71-2.542.96-.417 2.176-.464 3.136-.433v-.751c0-.336-.257-.99-1.103-.99-.833 0-1.104.782-1.072 1.15H85.1M94.604 35.112V33.53l2.398-.864v2.447h1.807v1.6h-1.807v3.724c0 1.057.16 1.344.991 1.344.256 0 .512-.031.768-.048v1.407c-.272.128-1.55.24-1.886.24-1.871 0-2.271-.975-2.271-2.719v-3.949h-1.615v-1.599h1.615M108.906 32.954c-1.696-.193-1.728.575-1.664 2.158h1.455v1.6h-1.455v6.427h-2.399v-6.428h-1.199v-1.599h1.2c-.064-2.287.144-3.758 2.75-3.758.431 0 .88.048 1.312.111v1.489M114.425 33.497v-1.903h1.632v1.903Zm-2.75 0v-1.903h1.63v1.903Zm3.566 8.652c-.512.734-1.263 1.23-2.478 1.23-.8 0-2.352-.607-2.64-1.774a5.526 5.526 0 0 1-.16-1.279v-5.214h2.4v4.813c.016.864.255 1.855 1.439 1.855.751 0 1.407-.687 1.439-1.855v-4.813h2.398v6.589c.017.48.048.96.096 1.438h-2.398l-.096-.99M121.786 35.112l.048 1.455h.033c.512-1.263 1.535-1.583 2.734-1.551v2.128h-1.039c-.4.03-.928.255-1.168.59-.255.449-.303.897-.319 1.424v3.981h-2.383l-.017-6.428c0-.336-.048-1.007-.08-1.599h2.191M50.522 56.554c1.167 0 1.967-.207 1.967-1.535 0-1.327-.8-1.536-1.967-1.536h-1.936v3.07Zm0-4.988c1.039 0 1.614-.433 1.614-1.36 0-.929-.575-1.36-1.614-1.36h-1.936v2.72Zm-4.414 6.907V46.927h4.334c2.062-.127 4.174.736 4.174 2.991 0 1.263-.88 2.142-2.032 2.526v.033c1.456.303 2.543 1.31 2.543 3.005 0 2.288-2.879 3.118-4.654 2.99h-4.365M59.114 50.446v8.027h-2.398v-8.027Zm.08-3.519v2.063h-2.558v-2.063h2.558M63.562 46.927v11.546h-2.398V46.927h2.398M69.433 57.113c1.296 0 1.727-1.55 1.727-2.654 0-1.103-.431-2.654-1.727-2.654-1.535 0-1.726 1.423-1.726 2.654 0 1.232.19 2.654 1.726 2.654zm1.727-10.186h2.4v9.947c0 .527.047 1.072.08 1.599h-2.4c-.031-.384-.063-.751-.063-1.136h-.032c-.528.945-1.424 1.375-2.463 1.375-2.351 0-3.454-2.19-3.454-4.253 0-2.16 1.263-4.253 3.758-4.253.831 0 1.695.495 2.143 1.167h.031v-4.446M80.632 57.482c-.511.735-1.263 1.23-2.478 1.23-.8 0-2.35-.606-2.639-1.774a5.516 5.516 0 0 1-.16-1.279v-5.213h2.4v4.812c.015.865.255 1.855 1.439 1.855.75 0 1.407-.687 1.438-1.855v-4.812h2.4v6.588c.015.48.048.96.095 1.439H80.73l-.097-.99M87.579 51.373l.031.048c.496-.736 1.248-1.215 2.463-1.215.8 0 2.35.591 2.639 1.759a5.5 5.5 0 0 1 .16 1.279v5.229h-2.4v-4.83c-.015-.863-.255-1.838-1.439-1.838-.75 0-1.406.672-1.438 1.839v4.829h-2.4v-8.027h2.384v.927M98.746 56.714c1.31 0 1.55-1.344 1.55-2.383 0-1.184-.24-2.526-1.55-2.526-1.312 0-1.551 1.342-1.551 2.526 0 1.04.24 2.383 1.55 2.383zm3.949 1.039c0 1.87-.415 3.918-3.934 3.886-1.775 0-3.677-.432-3.725-2.59h2.27c.032.72.672.992 1.328.992 1.823 0 1.759-1.665 1.662-2.831h-.03c-.497.784-1.345 1.103-2.256 1.103-2.175 0-3.294-2.047-3.294-3.997 0-2.047 1.168-4.11 3.406-4.11 1.072 0 1.76.352 2.143 1.167h.031v-.927h2.399v7.307M112.627 57.482c-.511.735-1.263 1.23-2.478 1.23-.799 0-2.351-.606-2.64-1.774a5.522 5.522 0 0 1-.159-1.279v-5.213h2.4v4.812c.015.865.255 1.855 1.439 1.855.75 0 1.407-.687 1.438-1.855v-4.812h2.398v6.588c.018.48.049.96.097 1.439h-2.399l-.096-.99M119.268 51.373l.033.048c.495-.736 1.247-1.215 2.462-1.215.799 0 2.351.591 2.64 1.759.127.495.159 1.007.159 1.279v5.229h-2.4v-4.83c-.015-.863-.255-1.838-1.439-1.838-.75 0-1.407.672-1.438 1.839v4.829h-2.399v-8.027h2.382v.927M130.148 57.113c1.296 0 1.728-1.55 1.728-2.654 0-1.103-.432-2.654-1.728-2.654-1.535 0-1.727 1.423-1.727 2.654 0 1.232.192 2.654 1.727 2.654zm1.728-10.186h2.399v9.947c0 .527.048 1.072.078 1.599h-2.398c-.032-.384-.063-.751-.063-1.136h-.033c-.527.945-1.423 1.375-2.462 1.375-2.35 0-3.455-2.19-3.455-4.253 0-2.16 1.263-4.253 3.758-4.253.832 0 1.695.495 2.143 1.167h.033v-4.446M146.164 50.222c-.097-1.168-.72-1.744-1.92-1.744-.91 0-1.839.48-1.839 1.487 0 1.247 1.119 1.392 2.111 1.632 1.76.448 4.35.944 4.35 3.261 0 2.864-2.495 3.854-4.973 3.854-2.64 0-4.51-1.023-4.43-3.933h2.526c-.094 1.28.64 2.143 1.935 2.143.992 0 2.304-.304 2.304-1.535 0-1.36-1.648-1.456-2.64-1.711-1.615-.4-3.821-1.135-3.821-3.182 0-2.64 2.43-3.806 4.798-3.806 2.238 0 3.982 1.215 3.982 3.534h-2.383M154.196 57.113c1.536 0 1.727-1.422 1.727-2.654 0-1.231-.191-2.654-1.727-2.654-1.296 0-1.728 1.55-1.728 2.654 0 1.104.432 2.654 1.728 2.654zm-1.728-5.74h.033c.448-.672 1.311-1.167 2.142-1.167 2.494 0 3.758 2.094 3.758 4.253 0 2.063-1.104 4.253-3.453 4.253-1.04 0-1.936-.43-2.447-1.375h-.033v4.206h-2.399v-9.498c0-.528-.048-1.072-.078-1.6h2.429l.048.928M163.62 57.113c1.47 0 1.71-1.375 1.71-2.654s-.24-2.654-1.71-2.654c-1.472 0-1.712 1.375-1.712 2.654 0 1.28.24 2.654 1.712 2.654zm0 1.6c-2.623 0-4.19-1.727-4.19-4.254 0-2.526 1.567-4.253 4.19-4.253 2.621 0 4.19 1.727 4.19 4.253 0 2.527-1.569 4.253-4.19 4.253M171.156 50.446l.048 1.454h.032c.512-1.263 1.536-1.582 2.735-1.55v2.127h-1.039c-.4.031-.928.255-1.168.591-.255.448-.304.896-.319 1.423v3.982h-2.382l-.018-6.428c0-.336-.048-1.008-.08-1.6h2.191M175.83 50.446v-1.584l2.398-.863v2.447h1.807v1.599h-1.807v3.725c0 1.056.16 1.343.99 1.343.257 0 .513-.03.769-.047v1.407c-.272.127-1.551.24-1.887.24-1.87 0-2.27-.976-2.27-2.72v-3.948h-1.617v-1.6h1.616"/></svg>
