<?xml version="1.0" encoding="UTF-8" standalone="no"?>
<svg
   xmlns:dc="http://purl.org/dc/elements/1.1/"
   xmlns:cc="http://creativecommons.org/ns#"
   xmlns:rdf="http://www.w3.org/1999/02/22-rdf-syntax-ns#"
   xmlns:svg="http://www.w3.org/2000/svg"
   xmlns="http://www.w3.org/2000/svg"
   viewBox="0 0 1198.6667 1400"
   height="1400"
   width="1198.6667"
   xml:space="preserve"
   id="svg2"
   version="1.1"><metadata
     id="metadata8"><rdf:RDF><cc:Work
         rdf:about=""><dc:format>image/svg+xml</dc:format><dc:type
           rdf:resource="http://purl.org/dc/dcmitype/StillImage" /></cc:Work></rdf:RDF></metadata><defs
     id="defs6" /><g
     transform="matrix(1.3333333,0,0,-1.3333333,0,1400)"
     id="g10"><g
       transform="scale(0.1)"
       id="g12"><path
         id="path14"
         style="fill:#231f20;fill-opacity:1;fill-rule:nonzero;stroke:none"
         d="m 4098.23,5244.12 c 0,202.07 163.81,365.88 365.89,365.88 202.07,0 365.88,-163.81 365.88,-365.88 0,-202.08 -163.81,-365.89 -365.88,-365.89 -202.08,0 -365.89,163.81 -365.89,365.89" /><path
         id="path16"
         style="fill:#231f20;fill-opacity:1;fill-rule:nonzero;stroke:none"
         d="m 2168.98,1427.13 c 459.76,-277.61 973.57,-474.759 1521.91,-571.927 l 39.27,213.517 c -578.63,100.84 -1117.8,318.43 -1590.45,627.61 l 29.27,-269.2" /><path
         id="path18"
         style="fill:#231f20;fill-opacity:1;fill-rule:nonzero;stroke:none"
         d="m 5183.83,1065.54 c 2012.69,339.77 3545.71,2091.02 3545.71,4200.38 0,284.28 -27.68,562.06 -80.79,830.75 l 181.14,172.71 c 75.5,-325.63 115.41,-664.9 115.41,-1013.5 0,-2218.06 -1615.67,-4058.7 -3734.35,-4409.259 l -27.12,218.919" /><path
         id="path20"
         style="fill:none;stroke:#231f20;stroke-width:10;stroke-linecap:butt;stroke-linejoin:miter;stroke-miterlimit:3.86370993;stroke-dasharray:none;stroke-opacity:1"
         d="m 5183.83,1065.54 c 2012.69,339.77 3545.71,2091.02 3545.71,4200.38 0,284.28 -27.68,562.06 -80.79,830.75 l 181.14,172.71 c 75.5,-325.63 115.41,-664.9 115.41,-1013.5 0,-2218.06 -1615.67,-4058.7 -3734.35,-4409.259 z" /><path
         id="path22"
         style="fill:#231f20;fill-opacity:1;fill-rule:nonzero;stroke:none"
         d="m 6719,9122.5 c -298.32,173.45 -618.56,313.35 -955.54,414.55 l -40.11,-197.49 c 276.75,-84.64 541.43,-196.61 790.87,-332.8 L 6719,9122.5" /><path
         id="path24"
         style="fill:#231f20;fill-opacity:1;fill-rule:nonzero;stroke:none"
         d="m 2140.96,3723.75 c 379.79,-582.15 971.4,-1013.52 1665.46,-1184.74 l 3.87,-216.65 c -686.24,154.75 -1282.09,545.41 -1699.2,1082.23 l 29.87,319.16" /><path
         id="path26"
         style="fill:#231f20;fill-opacity:1;fill-rule:nonzero;stroke:none"
         d="m 1834.77,6655.9 c 403.12,753.96 1121.22,1314.84 1978.26,1508.48 l 1.34,-213.41 C 3003.63,7753.61 2332.22,7201.88 1973.03,6469.24 l -138.26,186.66" /><path
         id="path28"
         style="fill:none;stroke:#ec008c;stroke-width:10;stroke-linecap:butt;stroke-linejoin:miter;stroke-miterlimit:3.86370993;stroke-dasharray:none;stroke-opacity:1"
         d="m 1834.77,6655.9 c 403.12,753.96 1121.22,1314.84 1978.26,1508.48 l 1.34,-213.41 C 3003.63,7753.61 2332.22,7201.88 1973.03,6469.24 Z" /><path
         id="path30"
         style="fill:#231f20;fill-opacity:1;fill-rule:nonzero;stroke:none"
         d="m 1115.77,5289.21 -181.723,-1.68 c 0,0 -8.723,61.59 -48.547,88.37 -39.824,26.79 -134.891,133.57 -149.953,190.14 -15.067,56.56 -40.18,186.42 61.586,284.84 101.758,98.42 156.648,105.11 261.757,103.44 105.11,-1.68 174.09,-33.27 209.89,-104.32 1.34,-2.66 -153.01,-560.79 -153.01,-560.79" /><path
         id="path32"
         style="fill:#231f20;fill-opacity:1;fill-rule:nonzero;stroke:none"
         d="M 1080.43,5155.99 H 792.109 c 0,0 -49.867,-53.22 -51.543,-161.67 -1.675,-108.46 28.106,-123.18 73.305,-203.18 45.199,-80 223.609,-528.54 266.789,-825.1 43.17,-296.57 33.12,-454.9 33.12,-454.9 L 1804,3364.18 c 0,0 100.09,323.71 81.68,691.9 -18.42,368.19 -109.8,632.57 -114.41,645.58 -76.18,215.19 -265.48,389.56 -265.48,389.56 l -50.7,-180.34 c -71.05,-293.69 -455.07,-245.08 -417.74,41.94 20.72,159.28 43.08,203.17 43.08,203.17" /><path
         id="path34"
         style="fill:#231f20;fill-opacity:1;fill-rule:nonzero;stroke:none"
         d="m 1099.93,4961.2 c 0,0 -31.01,-114.38 91.97,-145.59 122.98,-31.23 165.28,74.92 170.05,92.7 4.76,17.79 300.62,1051.9 300.62,1051.9 0,0 71.86,-5.04 103.56,1.61 31.7,6.66 61.33,-1.99 94.28,15.41 77.76,41.06 110.21,152.98 52.46,219.29 -49.13,56.42 -191.07,17.08 -191.07,17.08 0,0 30.09,149.96 -22.17,238.12 -52.27,88.16 -47.77,86.49 -47.77,86.49 l 90.62,338.2 -245.87,54.44 -189.48,-716.37 c 0,0 -8.43,-101.88 45.74,-129.78 24.42,-12.58 45.54,-53.7 45.54,-53.7 L 1099.93,4961.2" /><path
         id="path36"
         style="fill:#231f20;fill-opacity:1;fill-rule:nonzero;stroke:none"
         d="m 1115.98,3406.5 681.56,-155.39 c 0,0 7.72,-1008.48 25.39,-1227.7 17.67,-219.23 56.91,-635.38 56.91,-635.38 0,0 -278.44,36.13 -310.76,49.99 -32.32,13.85 -80,93.85 -93.85,183.08 -13.85,89.24 -34.63,893.85 -34.63,893.85 0,0 -52.3,-293.09 -118.45,-571.54 -66.15,-278.45 -100.77,-367.68 -100.77,-367.68 0,0 1.51,-71.57 -110.01,-114.63 -111.526,-43.06 -447.682,-66.15 -447.682,-66.15 0,0 203.859,285.37 333.847,866.15 129.985,580.78 118.445,1145.4 118.445,1145.4" /><path
         id="path38"
         style="fill:#231f20;fill-opacity:1;fill-rule:nonzero;stroke:none"
         d="m 5881.05,7650.27 c -209.23,122.44 -435.87,218.37 -675.3,283.18 l -1.51,215.4 c 238.48,-59.6 465.64,-147.79 677.6,-260.73 l -0.79,-237.85" /><path
         id="path40"
         style="fill:#231f20;fill-opacity:1;fill-rule:nonzero;stroke:none"
         d="M 7146.53,3888.94 C 6758.49,3125.72 6052.89,2551.1 5203.71,2339.05 l 0.67,215.16 c 731.21,197.52 1343.23,685.25 1704.89,1331.99 l 237.26,2.74" /><path
         id="path42"
         style="fill:#231f20;fill-opacity:1;fill-rule:nonzero;stroke:none"
         d="M 916.168,2910.09 C 467.754,3584.72 206.469,4394.5 206.469,5265.3 c 0,1923.97 1275.391,3550.01 3026.861,4078.8 l -0.06,206.2 C 1369.44,9011.96 6.46875,7293.11 6.46875,5255.88 6.46875,4278.7 320.09,3374.76 852.16,2639.22 l 64.008,270.87" /><path
         id="path44"
         style="fill:#231f20;fill-opacity:1;fill-rule:nonzero;stroke:none"
         d="m 3580.75,6253.63 c -275.22,-243.9 -448.7,-600.04 -448.7,-996.71 0,-318.15 111.1,-610.24 297.78,-839.24 L 3429.75,4108 c -306.52,282.23 -497.7,686.57 -497.7,1135.68 0,567.67 306.23,1063.81 762.5,1332.23 l -113.8,-322.28" /><path
         id="path46"
         style="fill:#231f20;fill-opacity:1;fill-rule:nonzero;stroke:none"
         d="m 5186.04,4138.6 c 366.3,237.18 608.67,649.44 608.67,1118.32 0,459.66 -232.94,864.91 -587.23,1104.14 l -0.03,243.69 c 484.43,-260.66 813.73,-772.4 813.73,-1361.07 0,-432.3 -177.6,-823.13 -463.82,-1103.48 l -371.32,-1.6" /><path
         id="path48"
         style="fill:#231f20;fill-opacity:1;fill-rule:nonzero;stroke:none"
         d="m 4039.89,8946.91 c 0,0 85.77,-216.91 103.1,-386.8 17.32,-169.9 10.72,-509.69 10.72,-509.69 l 712.58,-150.11 v 560 c 0,0 -188.86,65.98 -222.68,276.29 -33.82,210.31 -56.07,280.42 -80,306.8 -23.92,26.39 -33.82,23.1 -33.82,23.1 l -489.9,-119.59" /><path
         id="path50"
         style="fill:#231f20;fill-opacity:1;fill-rule:nonzero;stroke:none"
         d="m 4150.42,7939.89 692.78,-160 c 0,0 2.46,-1045.76 23.09,-1316.28 20.62,-270.52 43.71,-503.92 43.71,-503.92 l -310.11,43.71 c 0,0 -83.29,116.29 -93.19,276.29 -9.89,160 -26.39,793.4 -26.39,793.4 0,0 -123.71,-658.96 -187.22,-849.48 -63.51,-190.52 -115.45,-210.31 -136.07,-220.21 -20.63,-9.89 -466.81,-73.4 -466.81,-73.4 0,0 256.49,469.27 323.3,746.39 66.8,277.12 146.8,856.91 143.51,1007.01 -3.31,150.11 -6.6,256.49 -6.6,256.49" /><path
         id="path52"
         style="fill:#231f20;fill-opacity:1;fill-rule:evenodd;stroke:none"
         d="m 4957.16,9490.42 c 0,0 11.79,-106.1 -2.53,-140.63 -14.31,-34.52 -69.89,-82.52 -69.89,-82.52 l 60.63,-207.16 192,379.78 c 0,0 7.58,54.74 -52.21,54.74 -59.79,0 -128,-4.21 -128,-4.21 z M 4030,9612.53 h 557.47 c 0,0 31.16,-7.58 37.9,-67.37 6.74,-59.79 -29.47,-97.69 -87.58,-115.37 -58.1,-17.68 -610.52,-139.79 -610.52,-139.79 0,0 -84.22,-30.31 -119.59,77.47 -35.36,107.8 30.32,144.85 82.53,170.11 52.21,25.26 139.79,74.95 139.79,74.95 z m 48.44,877.47 c -228.65,-17.7 -311.17,-182.7 -301.07,-302.3 25.47,-301.42 155.79,-238.33 185.26,-280.43 29.48,-42.11 -32,-81.69 -67.36,-99.38 -35.38,-17.68 -347.8,-141.47 -332.64,-395.78 15.16,-254.32 246.74,-396.64 454.74,-349.48 208,47.16 430.31,90.11 430.31,90.11 0,0 190.32,63.16 245.06,-142.32 54.73,-205.47 129.68,-458.1 227.37,-435.37 97.68,22.74 334.31,542.32 369.68,614.74 35.37,72.42 125.48,288 115.37,355.37 -10.11,67.37 -27.79,112 -27.79,112 h 192.84 l 74.95,70.73 817.68,4.22 v 125.47 l -2145.68,-2.53 c 0,0 -101.89,54.74 -47.16,85.06 54.74,30.31 140.38,162.39 134.74,247.59 -7.58,114.5 -70.22,322.1 -326.3,302.3" /><path
         id="path54"
         style="fill:#231f20;fill-opacity:1;fill-rule:nonzero;stroke:none"
         d="m 7216.46,7745.23 c 0,70.95 30.51,128.47 68.15,128.47 37.64,0 68.16,-57.52 68.16,-128.47 0,-70.94 -30.52,-128.46 -68.16,-128.46 -37.64,0 -68.15,57.52 -68.15,128.46" /><path
         id="path56"
         style="fill:#231f20;fill-opacity:1;fill-rule:nonzero;stroke:none"
         d="m 6920.16,7746.3 1193.22,1693.55 c 0,0 379.69,-292.92 560,-633.23 180.32,-340.32 212.92,-673.85 212.92,-673.85 h -146.45 c 0,0 -42.77,324.62 -206.15,604 -163.39,279.38 -420.32,500.31 -420.32,500.31 l -1036.61,-1480.62 1040,-1503.08 c 0,0 360.62,320 493.54,633.24 132.92,313.23 170.16,743.69 170.16,743.69 h 149.84 c 0,0 10.16,-408.91 -229.84,-869.84 -240,-460.93 -590.47,-687.4 -590.47,-687.4 L 6920.16,7746.3" /><path
         id="path58"
         style="fill:#231f20;fill-opacity:1;fill-rule:nonzero;stroke:none"
         d="m 6683.54,8023.54 c 0,0 32.61,74.47 52.92,90.16 20.31,15.68 52.92,39.37 52.92,39.37 0,0 8.01,49.54 -29.22,73.23 -37.24,23.7 -143.08,92.3 -166.78,226.47 -23.69,134.16 54.17,252.29 173.55,323.38 119.37,71.09 303.07,23.7 366.14,-56.3 63.08,-80 96.93,-153.23 93.55,-246.78 -3.39,-93.53 -56.31,-168.91 -83.39,-192.6 -27.08,-23.7 -65.22,-56.31 -46.15,-83.39 19.07,-27.08 32.61,-30.46 32.61,-30.46 l -105.84,-149.85 -340.31,6.77" /><path
         id="path60"
         style="fill:#231f20;fill-opacity:1;fill-rule:nonzero;stroke:none"
         d="m 7347.24,7986.3 32.61,30.47 h 1499.69 c 0,0 103.69,-5.53 107.08,-126.15 3.38,-120.62 -74.48,-147.7 -100.32,-151.08 -25.83,-3.39 -1385.83,3.38 -1385.83,3.38 0,0 -24.94,88.01 -50.78,147.7 -25.84,59.69 -102.45,95.68 -102.45,95.68" /><path
         id="path62"
         style="fill:#231f20;fill-opacity:1;fill-rule:nonzero;stroke:none"
         d="m 6916.77,7880.47 h -640 c 0,0 -110.47,-4.63 -110.47,-120.62 0,-116 84.63,-132.92 113.86,-136.31 29.22,-3.38 646.77,0 646.77,0 l -107.08,139.69 96.92,117.24" /><path
         id="path64"
         style="fill:#231f20;fill-opacity:1;fill-rule:nonzero;stroke:none"
         d="m 7350.62,7513.07 c 0,0 33.85,8.02 69.85,44.01 35.99,35.99 39.38,66.46 39.38,66.46 h 216.3 c 0,0 12.3,-284 0,-347.08 -12.3,-63.08 -35.99,-166.77 -35.99,-166.77 l -289.54,403.38" /><path
         id="path66"
         style="fill:#231f20;fill-opacity:1;fill-rule:nonzero;stroke:none"
         d="m 6792.77,7487.24 h 207.39 l 609.53,-864.32 -39.38,-413.54 -690.77,137.55 c 0,0 47.39,376.3 20.31,629.84 -27.08,253.54 -107.08,510.47 -107.08,510.47" /><path
         id="path68"
         style="fill:#231f20;fill-opacity:1;fill-rule:nonzero;stroke:none"
         d="m 6860.47,6243.23 703.07,-129.53 c 0,0 -5.53,-1136.93 20.31,-1400.63 25.84,-263.69 52.92,-456.3 52.92,-456.3 l -316.61,39.38 c 0,0 -63.08,5.53 -93.54,236.62 -30.47,231.08 -42.77,810.15 -42.77,810.15 0,0 -77.85,-466.46 -144.31,-686.15 -66.47,-219.69 -76.62,-236.61 -76.62,-236.61 0,0 -5.53,-64.32 -109.22,-107.09 -103.7,-42.76 -450.78,-86.77 -450.78,-86.77 0,0 326.77,672.61 403.38,1033.24 76.62,360.62 54.17,983.69 54.17,983.69" /><path
         id="path70"
         style="fill:#231f20;fill-opacity:1;fill-rule:nonzero;stroke:none"
         d="m 4305.16,3906.57 -331.72,-1.68 c 0,0 -8.73,61.59 -48.55,88.37 -39.82,26.78 -134.89,133.57 -149.96,190.13 -15.06,56.57 -40.17,186.43 61.59,284.85 101.76,98.41 156.65,105.11 261.76,103.44 105.11,-1.68 213.22,-66.26 246.7,-129.88 33.48,-63.6 59.91,-133.56 58.23,-198.5 -1.67,-64.93 -36.47,-124.84 -56.56,-148.28 -20.08,-23.43 -78.33,-70.31 -64.93,-103.43 13.39,-33.13 23.44,-85.02 23.44,-85.02" /><path
         id="path72"
         style="fill:#231f20;fill-opacity:1;fill-rule:nonzero;stroke:none"
         d="M 4069.82,3773.35 H 3831.5 c 0,0 -49.87,-53.22 -51.54,-161.67 -1.68,-108.46 28.1,-123.18 73.3,-203.18 45.2,-80 223.62,-528.54 266.78,-825.11 43.17,-296.56 33.13,-454.89 33.13,-454.89 l 690.22,-146.96 c 0,0 100.09,323.7 81.68,691.9 -18.42,368.19 -96.75,644.67 -100.09,658.06 -3.35,13.39 -23.44,43.52 -23.44,43.52 h -506.43 c 0,0 -219.91,22.12 -248.37,195.16 -28.46,173.04 23.08,203.17 23.08,203.17" /><path
         id="path74"
         style="fill:#231f20;fill-opacity:1;fill-rule:nonzero;stroke:none"
         d="m 4271.68,3773.35 c 0,0 -118.51,0.35 -116.83,-126.52 1.67,-126.87 115.15,-140.26 133.56,-140.26 18.42,0 1161.5,0 1161.5,0 v -204.85 l 261.77,-1.68 -1.68,214.89 c 0,0 85.02,-8.36 156.65,64.94 71.63,73.3 58.24,116.83 58.24,116.83 h 350.13 v 171.71 l -825.11,-1.67 v -86.7 l -1178.23,-6.69" /><path
         id="path76"
         style="fill:#231f20;fill-opacity:1;fill-rule:nonzero;stroke:none"
         d="m 4155.37,2023.85 681.56,-155.38 c 0,0 7.72,-1008.482 25.39,-1227.704 17.67,-219.223 56.91,-635.38319 56.91,-635.38319 0,0 -278.44,36.13669 -310.76,49.98829 -32.32,13.8516 -80,93.8519 -93.85,183.0859 -13.85,89.234 -34.63,893.853 -34.63,893.853 0,0 -52.29,-293.099 -118.45,-571.544 -66.15,-278.446 -100.77,-367.68 -100.77,-367.68 0,0 1.51,-71.566 -110.02,-114.629 -111.52,-43.0625 -447.68,-66.1484 -447.68,-66.1484 0,0 203.87,285.3714 333.86,866.1484 129.98,580.773 118.44,1145.393 118.44,1145.393" /></g></g></svg>